<svg width="40" height="40" viewBox="0 0 40 40" fill="none" xmlns="http://www.w3.org/2000/svg">
<path d="M30 7.08301C30 6.08845 29.6049 5.13462 28.9016 4.43136C28.1984 3.7281 27.2446 3.33301 26.25 3.33301H13.75C12.7554 3.33301 11.8016 3.7281 11.0983 4.43136C10.3951 5.13462 10 6.08845 10 7.08301V32.9163C10 33.9109 10.3951 34.8647 11.0983 35.568C11.8016 36.2713 12.7554 36.6663 13.75 36.6663H18.4783L19.2383 34.1663H13.75C13.4185 34.1663 13.1005 34.0346 12.8661 33.8002C12.6317 33.5658 12.5 33.2479 12.5 32.9163V7.08301C12.5 6.75149 12.6317 6.43354 12.8661 6.19912C13.1005 5.9647 13.4185 5.83301 13.75 5.83301H26.25C26.5815 5.83301 26.8995 5.9647 27.1339 6.19912C27.3683 6.43354 27.5 6.75149 27.5 7.08301V18.4613C28.3269 18.3341 29.1657 18.3017 30 18.3647V7.08301ZM35 22.093C33.3594 20.737 31.2968 19.9966 29.1683 19.9997C27.572 19.9988 26.0031 20.4148 24.6169 21.2066C23.2307 21.9983 22.0753 23.1384 21.2651 24.5138C20.4549 25.8893 20.0179 27.4525 19.9974 29.0487C19.9769 30.645 20.3737 32.2189 21.1483 33.6147L20.0383 37.258C19.9939 37.4026 19.9897 37.5566 20.0261 37.7034C20.0626 37.8503 20.1383 37.9844 20.2452 38.0915C20.3521 38.1985 20.4861 38.2745 20.6329 38.3111C20.7797 38.3478 20.9336 38.3439 21.0783 38.2997L24.7233 37.1897C26.7236 38.3025 29.0678 38.6269 31.2951 38.099C33.5224 37.5711 35.4717 36.2292 36.7597 34.337C38.0478 32.4448 38.5814 30.1392 38.2558 27.8735C37.9302 25.6078 36.7688 23.5459 35 22.093ZM25.8333 28.333C25.6123 28.333 25.4004 28.2452 25.2441 28.0889C25.0878 27.9326 25 27.7207 25 27.4997C25 27.2787 25.0878 27.0667 25.2441 26.9104C25.4004 26.7541 25.6123 26.6663 25.8333 26.6663H32.5033C32.7243 26.6663 32.9363 26.7541 33.0926 26.9104C33.2489 27.0667 33.3367 27.2787 33.3367 27.4997C33.3367 27.7207 33.2489 27.9326 33.0926 28.0889C32.9363 28.2452 32.7243 28.333 32.5033 28.333H25.8333ZM29.1683 31.6663H25.835C25.614 31.6663 25.402 31.5785 25.2457 31.4223C25.0895 31.266 25.0017 31.054 25.0017 30.833C25.0017 30.612 25.0895 30.4 25.2457 30.2438C25.402 30.0875 25.614 29.9997 25.835 29.9997H29.1683C29.3893 29.9997 29.6013 30.0875 29.7576 30.2438C29.9139 30.4 30.0017 30.612 30.0017 30.833C30.0017 31.054 29.9139 31.266 29.7576 31.4223C29.6013 31.5785 29.3893 31.6663 29.1683 31.6663Z" fill="black"/>
</svg>
